<mxfile host="app.diagrams.net" modified="2022-07-21T13:47:54.724Z" agent="5.0 (Windows NT 10.0; WOW64) AppleWebKit/537.36 (KHTML, like Gecko) Chrome/103.0.0.0 Safari/537.36" etag="sAyLb9nqR20fzv_Fxbm4" version="20.1.1" type="github" pages="2">
  <diagram id="VxfxTeUdZXtsKRvmo0yV" name="SubmitReviewPublish">
    <mxGraphModel dx="2449" dy="2141" grid="1" gridSize="10" guides="1" tooltips="1" connect="1" arrows="1" fold="1" page="1" pageScale="1" pageWidth="1100" pageHeight="850" math="0" shadow="0">
      <root>
        <mxCell id="0" />
        <mxCell id="1" parent="0" />
        <mxCell id="1yga3iRedktPjQI7Co6K-21" value="" style="edgeStyle=orthogonalEdgeStyle;rounded=1;orthogonalLoop=1;jettySize=auto;html=1;fontColor=#E8C55D;strokeColor=#000000;entryX=-0.072;entryY=0.543;entryDx=0;entryDy=0;entryPerimeter=0;" edge="1" parent="1" source="mLH5fDm6BgMD-erpcmas-7" target="mLH5fDm6BgMD-erpcmas-21">
          <mxGeometry relative="1" as="geometry">
            <mxPoint x="425" y="-386.08000000000004" as="targetPoint" />
            <Array as="points">
              <mxPoint x="365" y="-387.08000000000004" />
              <mxPoint x="365" y="-387.08000000000004" />
            </Array>
          </mxGeometry>
        </mxCell>
        <mxCell id="mLH5fDm6BgMD-erpcmas-7" value="" style="outlineConnect=0;fontColor=#232F3E;gradientColor=none;fillColor=#232F3D;strokeColor=none;verticalLabelPosition=bottom;verticalAlign=top;align=center;html=1;fontSize=12;fontStyle=0;aspect=fixed;pointerEvents=1;shape=mxgraph.aws4.users;rounded=1;" parent="1" vertex="1">
          <mxGeometry x="265" y="-418.58000000000004" width="65" height="65" as="geometry" />
        </mxCell>
        <mxCell id="mLH5fDm6BgMD-erpcmas-19" value="" style="edgeStyle=orthogonalEdgeStyle;rounded=1;orthogonalLoop=1;jettySize=auto;html=1;fontSize=14;fontColor=#4D4D4D;endArrow=none;strokeWidth=2;strokeColor=#E8C55D;" parent="1" edge="1">
          <mxGeometry relative="1" as="geometry">
            <mxPoint x="375" y="-266.08000000000004" as="sourcePoint" />
            <mxPoint x="415" y="-386.08000000000004" as="targetPoint" />
            <Array as="points">
              <mxPoint x="415" y="-266.08000000000004" />
              <mxPoint x="415" y="-346.08000000000004" />
            </Array>
          </mxGeometry>
        </mxCell>
        <mxCell id="mLH5fDm6BgMD-erpcmas-21" value="" style="shape=image;html=1;verticalAlign=top;verticalLabelPosition=bottom;labelBackgroundColor=#00CC66;imageAspect=0;aspect=fixed;image=https://cdn2.iconfinder.com/data/icons/arrows-and-universal-actions-icon-set/256/ok_circle-128.png;fontSize=14;fontColor=#00CC66;strokeColor=#000000;strokeWidth=5;rounded=1;" parent="1" vertex="1">
          <mxGeometry x="445.00000000000006" y="-430.08000000000004" width="79" height="79" as="geometry" />
        </mxCell>
        <mxCell id="mLH5fDm6BgMD-erpcmas-23" value="&lt;font style=&quot;&quot;&gt;&lt;i style=&quot;&quot;&gt;&lt;span style=&quot;font-weight: normal;&quot;&gt;&lt;font style=&quot;font-size: 13px;&quot;&gt;For&lt;/font&gt;&lt;/span&gt;&lt;span style=&quot;font-size: 17px;&quot;&gt;&amp;nbsp;&lt;/span&gt;&lt;/i&gt;&lt;/font&gt;&lt;span style=&quot;font-weight: normal;&quot;&gt;&lt;i&gt;Data curators, Datastewards,&amp;nbsp;Peer-reviewers&lt;/i&gt;&lt;br&gt;&lt;br&gt;on the article under contributor role and on the journal page&amp;nbsp;&lt;br&gt;under Editorial Team (if applicable)&lt;br&gt;&lt;/span&gt;" style="text;html=1;resizable=0;points=[];autosize=1;align=left;verticalAlign=top;spacingTop=-4;fontSize=13;fontColor=#888888;fontFamily=Verdana;fontStyle=1;rounded=1;" parent="1" vertex="1">
          <mxGeometry x="615" y="-160.00000000000006" width="420" height="70" as="geometry" />
        </mxCell>
        <mxCell id="mLH5fDm6BgMD-erpcmas-32" value="&lt;div style=&quot;line-height: 150%&quot;&gt;&lt;font color=&quot;#cc6600&quot;&gt;Submit&lt;/font&gt;&lt;/div&gt;" style="text;html=1;resizable=0;points=[];autosize=1;align=left;verticalAlign=top;spacingTop=-4;fontSize=24;fontFamily=Verdana;fontColor=#4D4D4D;fontStyle=1;rounded=1;" parent="1" vertex="1">
          <mxGeometry x="145" y="-766.08" width="110" height="40" as="geometry" />
        </mxCell>
        <mxCell id="mLH5fDm6BgMD-erpcmas-48" value="" style="group;fontColor=#00CC66;rounded=1;" parent="1" vertex="1" connectable="0">
          <mxGeometry x="171.62" y="-766.08" width="758.38" height="150.00000000000003" as="geometry" />
        </mxCell>
        <mxCell id="mLH5fDm6BgMD-erpcmas-45" value="" style="edgeStyle=orthogonalEdgeStyle;rounded=1;orthogonalLoop=1;jettySize=auto;html=1;" parent="mLH5fDm6BgMD-erpcmas-48" source="mLH5fDm6BgMD-erpcmas-28" edge="1">
          <mxGeometry relative="1" as="geometry">
            <mxPoint x="293.38" y="95" as="targetPoint" />
          </mxGeometry>
        </mxCell>
        <mxCell id="mLH5fDm6BgMD-erpcmas-28" value="" style="shape=image;verticalLabelPosition=bottom;labelBackgroundColor=#ffffff;verticalAlign=top;aspect=fixed;imageAspect=0;image=data:image/svg+xml,PHN2ZyB4bWxuczpjYz0iaHR0cDovL2NyZWF0aXZlY29tbW9ucy5vcmcvbnMjIiB4bWxuczpkYz0iaHR0cDovL3B1cmwub3JnL2RjL2VsZW1lbnRzLzEuMS8iIHhtbG5zOmlua3NjYXBlPSJodHRwOi8vd3d3Lmlua3NjYXBlLm9yZy9uYW1lc3BhY2VzL2lua3NjYXBlIiB4bWxuczpyZGY9Imh0dHA6Ly93d3cudzMub3JnLzE5OTkvMDIvMjItcmRmLXN5bnRheC1ucyMiIHhtbG5zOnNvZGlwb2RpPSJodHRwOi8vc29kaXBvZGkuc291cmNlZm9yZ2UubmV0L0RURC9zb2RpcG9kaS0wLmR0ZCIgeG1sbnM6c3ZnPSJodHRwOi8vd3d3LnczLm9yZy8yMDAwL3N2ZyIgeG1sbnM9Imh0dHA6Ly93d3cudzMub3JnLzIwMDAvc3ZnIiB4bWxuczp4bGluaz0iaHR0cDovL3d3dy53My5vcmcvMTk5OS94bGluayIgdmVyc2lvbj0iMS4xIiBpZD0ic3ZnMTg2OSIgaW5rc2NhcGU6dmVyc2lvbj0iMC45Mi4zICgyNDA1NTQ2LCAyMDE4LTAzLTExKSIgc29kaXBvZGk6ZG9jbmFtZT0idXBsb2FkLnN2ZyIgeD0iMHB4IiB5PSIwcHgiIHZpZXdCb3g9IjAgMCAyOS44NiAzNy40MyIgc3R5bGU9ImVuYWJsZS1iYWNrZ3JvdW5kOm5ldyAwIDAgMjkuODYgMzcuNDM7IiB4bWw6c3BhY2U9InByZXNlcnZlIj4mI3hhOzxzb2RpcG9kaTpuYW1lZHZpZXcgYm9yZGVyY29sb3I9IiM2NjY2NjYiIGJvcmRlcm9wYWNpdHk9IjEiIGZpdC1tYXJnaW4tYm90dG9tPSIwIiBmaXQtbWFyZ2luLWxlZnQ9IjAiIGZpdC1tYXJnaW4tcmlnaHQ9IjAiIGZpdC1tYXJnaW4tdG9wPSIwIiBncmlkdG9sZXJhbmNlPSIxMCIgZ3VpZGV0b2xlcmFuY2U9IjEwIiBpZD0ibmFtZWR2aWV3MTg3MSIgaW5rc2NhcGU6Y3VycmVudC1sYXllcj0ic3ZnMTg2OSIgaW5rc2NhcGU6Y3g9IjE5LjU2NDIzNCIgaW5rc2NhcGU6Y3k9IjE5Ljc5NDAzIiBpbmtzY2FwZTpwYWdlb3BhY2l0eT0iMCIgaW5rc2NhcGU6cGFnZXNoYWRvdz0iMiIgaW5rc2NhcGU6d2luZG93LWhlaWdodD0iMTAxNyIgaW5rc2NhcGU6d2luZG93LW1heGltaXplZD0iMSIgaW5rc2NhcGU6d2luZG93LXdpZHRoPSIxOTIwIiBpbmtzY2FwZTp3aW5kb3cteD0iLTgiIGlua3NjYXBlOndpbmRvdy15PSItOCIgaW5rc2NhcGU6em9vbT0iMTIuMDQyMTIzIiBvYmplY3R0b2xlcmFuY2U9IjEwIiBwYWdlY29sb3I9IiNmZmZmZmYiIHNob3dncmlkPSJmYWxzZSI+JiN4YTsJPC9zb2RpcG9kaTpuYW1lZHZpZXc+JiN4YTs8ZyBpZD0iZzE4NjciIHRyYW5zZm9ybT0idHJhbnNsYXRlKDAsLTMuNTYwMzEyNWUtNSkiPiYjeGE7CTx0aXRsZSBpZD0idGl0bGUxNzk0Ij5QYWdlLTE8L3RpdGxlPiYjeGE7CTxnIGlkPSJncm91cDMwNjktMSIgdHJhbnNmb3JtPSJ0cmFuc2xhdGUoMCwtMS41KSI+JiN4YTsJCTx0aXRsZSBpZD0idGl0bGUxNzk2Ij5VcGxvYWQ8L3RpdGxlPiYjeGE7CQk8ZyBpZD0iZ3JvdXAzMDcwLTIiIHRyYW5zZm9ybT0idHJhbnNsYXRlKDUuNzUwMzgpIj4mI3hhOwkJCTx0aXRsZSBpZD0idGl0bGUxNzk4Ij5nMTU5MzAuMzgxNjI8L3RpdGxlPiYjeGE7CQkJPGcgaWQ9InNoYXBlMzA3MS0zIj4mI3hhOwkJCQk8dGl0bGUgaWQ9InRpdGxlMTgwMCI+cG9seWdvbjE1OTEyPC90aXRsZT4mI3hhOwkJCQk8cGF0aCBpZD0icGF0aDE4MDIiIGlua3NjYXBlOmNvbm5lY3Rvci1jdXJ2YXR1cmU9IjAiIHN0eWxlPSJmaWxsOiNGRkZGRkY7IiBkPSJNMjMuODYsMzguMThIMFY2LjJoMTMuMzVsMTAuNTEsMTBWMzguMTh6Ii8+JiN4YTsJCQk8L2c+JiN4YTsJCQk8ZyBpZD0ic2hhcGUzMDcyLTUiIHRyYW5zZm9ybT0idHJhbnNsYXRlKDEzLjIsLTIxLjgzMDgpIj4mI3hhOwkJCQk8dGl0bGUgaWQ9InRpdGxlMTgwNSI+cG9seWdvbjE1OTE0PC90aXRsZT4mI3hhOwkJCQk8cGF0aCBpZD0icGF0aDE4MDciIGlua3NjYXBlOmNvbm5lY3Rvci1jdXJ2YXR1cmU9IjAiIHN0eWxlPSJmaWxsOiM1NUQyRjY7IiBkPSJNMTAuNjYsMzguMThIMFYyOC4wM0wxMC42NiwzOC4xOHoiLz4mI3hhOwkJCTwvZz4mI3hhOwkJCTxnIGlkPSJzaGFwZTMwNzMtNyI+JiN4YTsJCQkJPHRpdGxlIGlkPSJ0aXRsZTE4MTAiPnBhdGgxNTkxNjwvdGl0bGU+JiN4YTsJCQkJJiN4YTsJCQkJCTxwYXRoIGlkPSJwYXRoMTgxMiIgaW5rc2NhcGU6Y29ubmVjdG9yLWN1cnZhdHVyZT0iMCIgc3R5bGU9ImZpbGw6bm9uZTtzdHJva2U6IzU1NkE4QTtzdHJva2Utd2lkdGg6MS41O3N0cm9rZS1taXRlcmxpbWl0OjM7IiBkPSIgICAgICBNMTMuMzksNi43MUgwLjc0QzAuNDcsNi43MSwwLDYuNjcsMCw2Ljk0djMwLjVjMC4wOSwwLjM2LDAuMzgsMC42NSwwLjc0LDAuNzRoMjIuMzhjMC4yNywwLDAuMjMtMC40NywwLjIzLTAuNzRWMTYuMjkgICAgICBMMTMuMzksNi43MXoiLz4mI3hhOwkJCTwvZz4mI3hhOwkJCTxnIGlkPSJzaGFwZTMwNzQtOSIgdHJhbnNmb3JtPSJ0cmFuc2xhdGUoMC41MDc2OTIsLTAuNTA3NjkyKSI+JiN4YTsJCQkJPHRpdGxlIGlkPSJ0aXRsZTE4MTUiPnJlY3QxNTkxODwvdGl0bGU+JiN4YTsJCQkJPHJlY3QgaWQ9InJlY3QxODE3IiB4PSIwIiB5PSI3LjcyIiBzdHlsZT0iZmlsbDojRTVFNUU1OyIgd2lkdGg9IjguMTIiIGhlaWdodD0iMzAuNDYiLz4mI3hhOwkJCTwvZz4mI3hhOwkJCTxnIGlkPSJzaGFwZTMwNzUtMTEiIHRyYW5zZm9ybT0idHJhbnNsYXRlKDEyLjY5MjMsLTIxLjMyMzEpIj4mI3hhOwkJCQk8dGl0bGUgaWQ9InRpdGxlMTgyMCI+cG9seWxpbmUxNTkyMDwvdGl0bGU+JiN4YTsJCQkJPHBhdGggaWQ9InBhdGgxODIyIiBpbmtzY2FwZTpjb25uZWN0b3ItY3VydmF0dXJlPSIwIiBzdHlsZT0iZmlsbDpub25lOyIgZD0iTTAsMjguMDN2MTAuMTVoMTAuNjZMMCwyOC4wM3oiLz4mI3hhOwkJCQkmI3hhOwkJCQkJPHBhdGggaWQ9InBhdGgxODI0IiBpbmtzY2FwZTpjb25uZWN0b3ItY3VydmF0dXJlPSIwIiBzdHlsZT0iZmlsbDpub25lO3N0cm9rZTojNTU2QThBO3N0cm9rZS13aWR0aDoxLjU7c3Ryb2tlLW1pdGVybGltaXQ6MzsiIGQ9IiAgICAgIE0wLDI4LjAzdjEwLjE1aDEwLjY2Ii8+JiN4YTsJCQk8L2c+JiN4YTsJCQk8ZyBpZD0ic2hhcGUzMDc2LTE0IiB0cmFuc2Zvcm09InRyYW5zbGF0ZSgzLjU1Mzg1LC0yMC44MTU0KSI+JiN4YTsJCQkJPHRpdGxlIGlkPSJ0aXRsZTE4MjciPmxpbmUxNTkyMjwvdGl0bGU+JiN4YTsJCQkJJiN4YTsJCQkJCTxwYXRoIGlkPSJwYXRoMTgyOSIgaW5rc2NhcGU6Y29ubmVjdG9yLWN1cnZhdHVyZT0iMCIgc3R5bGU9ImZpbGw6bm9uZTtzdHJva2U6I0E3QTlBQztzdHJva2Utd2lkdGg6MS41O3N0cm9rZS1taXRlcmxpbWl0OjM7IiBkPSIgICAgICBNMCwzOC4xOGg2LjYiLz4mI3hhOwkJCTwvZz4mI3hhOwkJCTxnIGlkPSJzaGFwZTMwNzctMTciIHRyYW5zZm9ybT0idHJhbnNsYXRlKDMuNTUzODUsLTE2LjI0NjIpIj4mI3hhOwkJCQk8dGl0bGUgaWQ9InRpdGxlMTgzMiI+bGluZTE1OTI0PC90aXRsZT4mI3hhOwkJCQkmI3hhOwkJCQkJPHBhdGggaWQ9InBhdGgxODM0IiBpbmtzY2FwZTpjb25uZWN0b3ItY3VydmF0dXJlPSIwIiBzdHlsZT0iZmlsbDpub25lO3N0cm9rZTojQTdBOUFDO3N0cm9rZS13aWR0aDoxLjU7c3Ryb2tlLW1pdGVybGltaXQ6MzsiIGQ9IiAgICAgIE0wLDM4LjE4aDE2LjI1Ii8+JiN4YTsJCQk8L2c+JiN4YTsJCQk8ZyBpZD0ic2hhcGUzMDc4LTIwIiB0cmFuc2Zvcm09InRyYW5zbGF0ZSgzLjU1Mzg1LC0xMS42NzY5KSI+JiN4YTsJCQkJPHRpdGxlIGlkPSJ0aXRsZTE4MzciPmxpbmUxNTkyNjwvdGl0bGU+JiN4YTsJCQkJJiN4YTsJCQkJCTxwYXRoIGlkPSJwYXRoMTgzOSIgaW5rc2NhcGU6Y29ubmVjdG9yLWN1cnZhdHVyZT0iMCIgc3R5bGU9ImZpbGw6bm9uZTtzdHJva2U6I0E3QTlBQztzdHJva2Utd2lkdGg6MS41O3N0cm9rZS1taXRlcmxpbWl0OjM7IiBkPSIgICAgICBNMCwzOC4xOGgxNi4yNSIvPiYjeGE7CQkJPC9nPiYjeGE7CQkJPGcgaWQ9InNoYXBlMzA3OS0yMyIgdHJhbnNmb3JtPSJ0cmFuc2xhdGUoMy41NTM4NSwtNy4xMDc2OSkiPiYjeGE7CQkJCTx0aXRsZSBpZD0idGl0bGUxODQyIj5saW5lMTU5Mjg8L3RpdGxlPiYjeGE7CQkJCSYjeGE7CQkJCQk8cGF0aCBpZD0icGF0aDE4NDQiIGlua3NjYXBlOmNvbm5lY3Rvci1jdXJ2YXR1cmU9IjAiIHN0eWxlPSJmaWxsOm5vbmU7c3Ryb2tlOiNBN0E5QUM7c3Ryb2tlLXdpZHRoOjEuNTtzdHJva2UtbWl0ZXJsaW1pdDozOyIgZD0iICAgICAgTTAsMzguMThoMTYuMjUiLz4mI3hhOwkJCTwvZz4mI3hhOwkJPC9nPiYjeGE7CQk8ZyBpZD0iZ3JvdXAzMDgwLTI2IiB0cmFuc2Zvcm09InRyYW5zbGF0ZSgwLC0xOS4wOCkiPiYjeGE7CQkJPHRpdGxlIGlkPSJ0aXRsZTE4NDgiPkRvd25sb2FkLjM4MTc2PC90aXRsZT4mI3hhOwkJCTxnIGlkPSJzaGFwZTMwODEtMjciPiYjeGE7CQkJCTx0aXRsZSBpZD0idGl0bGUxODUwIj5TaGVldC4zMDgxPC90aXRsZT4mI3hhOwkJCQk8cGF0aCBpZD0icGF0aDE4NTIiIGlua3NjYXBlOmNvbm5lY3Rvci1jdXJ2YXR1cmU9IjAiIHN0eWxlPSJmaWxsOiNGRkZGRkY7IiBkPSJNMTEuNDksMzMuMjdIOS43OGwtMS41Ny0xLjU0djYuNDVIMy4yOHYtNi40MiAgICAgIGwtMS40NiwxLjUxSDBWMjkuMWw0LjAzLTQuMDJIMC40MXYtNC41aDEwLjY3djQuNUg3LjQ5bDQsNC4wMlYzMy4yN3oiLz4mI3hhOwkJCTwvZz4mI3hhOwkJCTxnIGlkPSJzaGFwZTMwODItMjkiIHRyYW5zZm9ybT0idHJhbnNsYXRlKDEuMjMxNTksLTEuMjI4MDcpIj4mI3hhOwkJCQk8dGl0bGUgaWQ9InRpdGxlMTg1NSI+U2hlZXQuMzA4MjwvdGl0bGU+JiN4YTsJCQkJPHBhdGggaWQ9InBhdGgxODU3IiBpbmtzY2FwZTpjb25uZWN0b3ItY3VydmF0dXJlPSIwIiBzdHlsZT0iZmlsbDojNTU2QThBOyIgZD0iTTMuMjgsMzBMMCwzMy4yN3YtMi40Nmw0LjUyLTQuNWw0LjUxLDQuNXYyLjQ2ICAgICAgTDUuNzUsMzB2OC4xOEgzLjI4VjMweiIvPiYjeGE7CQkJPC9nPiYjeGE7CQkJPGcgaWQ9InNoYXBlMzA4My0zMSIgdHJhbnNmb3JtPSJ0cmFuc2xhdGUoMS42NDIxMSwtMTQuMzI3NCkiPiYjeGE7CQkJCTx0aXRsZSBpZD0idGl0bGUxODYwIj5TaGVldC4zMDgzPC90aXRsZT4mI3hhOwkJCQk8cGF0aCBpZD0icGF0aDE4NjIiIGlua3NjYXBlOmNvbm5lY3Rvci1jdXJ2YXR1cmU9IjAiIHN0eWxlPSJmaWxsOiM1NTZBOEE7IiBkPSJNMCwzNi4xNHYyLjA0aDguMjF2LTIuMDRIMHoiLz4mI3hhOwkJCTwvZz4mI3hhOwkJPC9nPiYjeGE7CTwvZz4mI3hhOzwvZz4mI3hhOzwvc3ZnPg==;rounded=1;" parent="mLH5fDm6BgMD-erpcmas-48" vertex="1">
          <mxGeometry y="60.00000000000003" width="56.76" height="70" as="geometry" />
        </mxCell>
        <mxCell id="mLH5fDm6BgMD-erpcmas-47" value="" style="edgeStyle=orthogonalEdgeStyle;rounded=1;orthogonalLoop=1;jettySize=auto;html=1;" parent="mLH5fDm6BgMD-erpcmas-48" source="mLH5fDm6BgMD-erpcmas-30" edge="1">
          <mxGeometry relative="1" as="geometry">
            <mxPoint x="643.38" y="95" as="targetPoint" />
          </mxGeometry>
        </mxCell>
        <mxCell id="mLH5fDm6BgMD-erpcmas-30" value="" style="outlineConnect=0;fontColor=#232F3E;gradientColor=none;fillColor=#232F3D;strokeColor=none;dashed=0;verticalLabelPosition=bottom;verticalAlign=top;align=center;html=1;fontSize=12;fontStyle=0;aspect=fixed;pointerEvents=1;shape=mxgraph.aws4.users;rounded=1;" parent="mLH5fDm6BgMD-erpcmas-48" vertex="1">
          <mxGeometry x="323.38" y="62.50000000000003" width="65" height="65" as="geometry" />
        </mxCell>
        <mxCell id="mLH5fDm6BgMD-erpcmas-31" value="" style="shape=image;html=1;verticalAlign=top;verticalLabelPosition=bottom;labelBackgroundColor=#ffffff;imageAspect=0;aspect=fixed;image=https://cdn1.iconfinder.com/data/icons/office-icons-17/512/ilustracoes_04-14-128.png;fontSize=12;strokeColor=#000000;strokeWidth=5;rounded=1;" parent="mLH5fDm6BgMD-erpcmas-48" vertex="1">
          <mxGeometry x="648.38" y="40.00000000000003" width="110" height="110" as="geometry" />
        </mxCell>
        <mxCell id="mLH5fDm6BgMD-erpcmas-34" value="&lt;div style=&quot;line-height: 150%&quot;&gt;&lt;font color=&quot;#e8c55d&quot;&gt;Review&lt;/font&gt;&lt;/div&gt;" style="text;html=1;resizable=0;points=[];autosize=1;align=left;verticalAlign=top;spacingTop=-4;fontSize=24;fontFamily=Verdana;fontColor=#4D4D4D;fontStyle=1;rounded=1;" parent="mLH5fDm6BgMD-erpcmas-48" vertex="1">
          <mxGeometry x="300.88" width="110" height="40" as="geometry" />
        </mxCell>
        <mxCell id="mLH5fDm6BgMD-erpcmas-35" value="&lt;div style=&quot;line-height: 150%&quot;&gt;&lt;span style=&quot;color: rgb(0, 204, 102);&quot;&gt;Publish&lt;/span&gt;&lt;br&gt;&lt;/div&gt;" style="text;html=1;resizable=0;points=[];autosize=1;align=left;verticalAlign=top;spacingTop=-4;fontSize=24;fontFamily=Verdana;fontColor=#4D4D4D;fontStyle=1;rounded=1;" parent="mLH5fDm6BgMD-erpcmas-48" vertex="1">
          <mxGeometry x="648.38" width="110" height="40" as="geometry" />
        </mxCell>
        <mxCell id="1yga3iRedktPjQI7Co6K-16" value="" style="edgeStyle=orthogonalEdgeStyle;rounded=1;orthogonalLoop=1;jettySize=auto;html=1;fontColor=#E8C55D;strokeColor=#000000;entryX=-0.154;entryY=0.5;entryDx=0;entryDy=0;entryPerimeter=0;" edge="1" parent="1" source="mLH5fDm6BgMD-erpcmas-52" target="mLH5fDm6BgMD-erpcmas-7">
          <mxGeometry relative="1" as="geometry">
            <mxPoint x="245" y="-386.08000000000004" as="targetPoint" />
          </mxGeometry>
        </mxCell>
        <mxCell id="mLH5fDm6BgMD-erpcmas-52" value="" style="shape=image;verticalLabelPosition=bottom;labelBackgroundColor=#ffffff;verticalAlign=top;aspect=fixed;imageAspect=0;image=data:image/svg+xml,PHN2ZyB4bWxuczpjYz0iaHR0cDovL2NyZWF0aXZlY29tbW9ucy5vcmcvbnMjIiB4bWxuczpkYz0iaHR0cDovL3B1cmwub3JnL2RjL2VsZW1lbnRzLzEuMS8iIHhtbG5zOmlua3NjYXBlPSJodHRwOi8vd3d3Lmlua3NjYXBlLm9yZy9uYW1lc3BhY2VzL2lua3NjYXBlIiB4bWxuczpyZGY9Imh0dHA6Ly93d3cudzMub3JnLzE5OTkvMDIvMjItcmRmLXN5bnRheC1ucyMiIHhtbG5zOnNvZGlwb2RpPSJodHRwOi8vc29kaXBvZGkuc291cmNlZm9yZ2UubmV0L0RURC9zb2RpcG9kaS0wLmR0ZCIgeG1sbnM6c3ZnPSJodHRwOi8vd3d3LnczLm9yZy8yMDAwL3N2ZyIgeG1sbnM9Imh0dHA6Ly93d3cudzMub3JnLzIwMDAvc3ZnIiB4bWxuczp4bGluaz0iaHR0cDovL3d3dy53My5vcmcvMTk5OS94bGluayIgdmVyc2lvbj0iMS4xIiBpZD0ic3ZnMTg2OSIgaW5rc2NhcGU6dmVyc2lvbj0iMC45Mi4zICgyNDA1NTQ2LCAyMDE4LTAzLTExKSIgc29kaXBvZGk6ZG9jbmFtZT0idXBsb2FkLnN2ZyIgeD0iMHB4IiB5PSIwcHgiIHZpZXdCb3g9IjAgMCAyOS44NiAzNy40MyIgc3R5bGU9ImVuYWJsZS1iYWNrZ3JvdW5kOm5ldyAwIDAgMjkuODYgMzcuNDM7IiB4bWw6c3BhY2U9InByZXNlcnZlIj4mI3hhOzxzb2RpcG9kaTpuYW1lZHZpZXcgYm9yZGVyY29sb3I9IiM2NjY2NjYiIGJvcmRlcm9wYWNpdHk9IjEiIGZpdC1tYXJnaW4tYm90dG9tPSIwIiBmaXQtbWFyZ2luLWxlZnQ9IjAiIGZpdC1tYXJnaW4tcmlnaHQ9IjAiIGZpdC1tYXJnaW4tdG9wPSIwIiBncmlkdG9sZXJhbmNlPSIxMCIgZ3VpZGV0b2xlcmFuY2U9IjEwIiBpZD0ibmFtZWR2aWV3MTg3MSIgaW5rc2NhcGU6Y3VycmVudC1sYXllcj0ic3ZnMTg2OSIgaW5rc2NhcGU6Y3g9IjE5LjU2NDIzNCIgaW5rc2NhcGU6Y3k9IjE5Ljc5NDAzIiBpbmtzY2FwZTpwYWdlb3BhY2l0eT0iMCIgaW5rc2NhcGU6cGFnZXNoYWRvdz0iMiIgaW5rc2NhcGU6d2luZG93LWhlaWdodD0iMTAxNyIgaW5rc2NhcGU6d2luZG93LW1heGltaXplZD0iMSIgaW5rc2NhcGU6d2luZG93LXdpZHRoPSIxOTIwIiBpbmtzY2FwZTp3aW5kb3cteD0iLTgiIGlua3NjYXBlOndpbmRvdy15PSItOCIgaW5rc2NhcGU6em9vbT0iMTIuMDQyMTIzIiBvYmplY3R0b2xlcmFuY2U9IjEwIiBwYWdlY29sb3I9IiNmZmZmZmYiIHNob3dncmlkPSJmYWxzZSI+JiN4YTsJPC9zb2RpcG9kaTpuYW1lZHZpZXc+JiN4YTs8ZyBpZD0iZzE4NjciIHRyYW5zZm9ybT0idHJhbnNsYXRlKDAsLTMuNTYwMzEyNWUtNSkiPiYjeGE7CTx0aXRsZSBpZD0idGl0bGUxNzk0Ij5QYWdlLTE8L3RpdGxlPiYjeGE7CTxnIGlkPSJncm91cDMwNjktMSIgdHJhbnNmb3JtPSJ0cmFuc2xhdGUoMCwtMS41KSI+JiN4YTsJCTx0aXRsZSBpZD0idGl0bGUxNzk2Ij5VcGxvYWQ8L3RpdGxlPiYjeGE7CQk8ZyBpZD0iZ3JvdXAzMDcwLTIiIHRyYW5zZm9ybT0idHJhbnNsYXRlKDUuNzUwMzgpIj4mI3hhOwkJCTx0aXRsZSBpZD0idGl0bGUxNzk4Ij5nMTU5MzAuMzgxNjI8L3RpdGxlPiYjeGE7CQkJPGcgaWQ9InNoYXBlMzA3MS0zIj4mI3hhOwkJCQk8dGl0bGUgaWQ9InRpdGxlMTgwMCI+cG9seWdvbjE1OTEyPC90aXRsZT4mI3hhOwkJCQk8cGF0aCBpZD0icGF0aDE4MDIiIGlua3NjYXBlOmNvbm5lY3Rvci1jdXJ2YXR1cmU9IjAiIHN0eWxlPSJmaWxsOiNGRkZGRkY7IiBkPSJNMjMuODYsMzguMThIMFY2LjJoMTMuMzVsMTAuNTEsMTBWMzguMTh6Ii8+JiN4YTsJCQk8L2c+JiN4YTsJCQk8ZyBpZD0ic2hhcGUzMDcyLTUiIHRyYW5zZm9ybT0idHJhbnNsYXRlKDEzLjIsLTIxLjgzMDgpIj4mI3hhOwkJCQk8dGl0bGUgaWQ9InRpdGxlMTgwNSI+cG9seWdvbjE1OTE0PC90aXRsZT4mI3hhOwkJCQk8cGF0aCBpZD0icGF0aDE4MDciIGlua3NjYXBlOmNvbm5lY3Rvci1jdXJ2YXR1cmU9IjAiIHN0eWxlPSJmaWxsOiM1NUQyRjY7IiBkPSJNMTAuNjYsMzguMThIMFYyOC4wM0wxMC42NiwzOC4xOHoiLz4mI3hhOwkJCTwvZz4mI3hhOwkJCTxnIGlkPSJzaGFwZTMwNzMtNyI+JiN4YTsJCQkJPHRpdGxlIGlkPSJ0aXRsZTE4MTAiPnBhdGgxNTkxNjwvdGl0bGU+JiN4YTsJCQkJJiN4YTsJCQkJCTxwYXRoIGlkPSJwYXRoMTgxMiIgaW5rc2NhcGU6Y29ubmVjdG9yLWN1cnZhdHVyZT0iMCIgc3R5bGU9ImZpbGw6bm9uZTtzdHJva2U6IzU1NkE4QTtzdHJva2Utd2lkdGg6MS41O3N0cm9rZS1taXRlcmxpbWl0OjM7IiBkPSIgICAgICBNMTMuMzksNi43MUgwLjc0QzAuNDcsNi43MSwwLDYuNjcsMCw2Ljk0djMwLjVjMC4wOSwwLjM2LDAuMzgsMC42NSwwLjc0LDAuNzRoMjIuMzhjMC4yNywwLDAuMjMtMC40NywwLjIzLTAuNzRWMTYuMjkgICAgICBMMTMuMzksNi43MXoiLz4mI3hhOwkJCTwvZz4mI3hhOwkJCTxnIGlkPSJzaGFwZTMwNzQtOSIgdHJhbnNmb3JtPSJ0cmFuc2xhdGUoMC41MDc2OTIsLTAuNTA3NjkyKSI+JiN4YTsJCQkJPHRpdGxlIGlkPSJ0aXRsZTE4MTUiPnJlY3QxNTkxODwvdGl0bGU+JiN4YTsJCQkJPHJlY3QgaWQ9InJlY3QxODE3IiB4PSIwIiB5PSI3LjcyIiBzdHlsZT0iZmlsbDojRTVFNUU1OyIgd2lkdGg9IjguMTIiIGhlaWdodD0iMzAuNDYiLz4mI3hhOwkJCTwvZz4mI3hhOwkJCTxnIGlkPSJzaGFwZTMwNzUtMTEiIHRyYW5zZm9ybT0idHJhbnNsYXRlKDEyLjY5MjMsLTIxLjMyMzEpIj4mI3hhOwkJCQk8dGl0bGUgaWQ9InRpdGxlMTgyMCI+cG9seWxpbmUxNTkyMDwvdGl0bGU+JiN4YTsJCQkJPHBhdGggaWQ9InBhdGgxODIyIiBpbmtzY2FwZTpjb25uZWN0b3ItY3VydmF0dXJlPSIwIiBzdHlsZT0iZmlsbDpub25lOyIgZD0iTTAsMjguMDN2MTAuMTVoMTAuNjZMMCwyOC4wM3oiLz4mI3hhOwkJCQkmI3hhOwkJCQkJPHBhdGggaWQ9InBhdGgxODI0IiBpbmtzY2FwZTpjb25uZWN0b3ItY3VydmF0dXJlPSIwIiBzdHlsZT0iZmlsbDpub25lO3N0cm9rZTojNTU2QThBO3N0cm9rZS13aWR0aDoxLjU7c3Ryb2tlLW1pdGVybGltaXQ6MzsiIGQ9IiAgICAgIE0wLDI4LjAzdjEwLjE1aDEwLjY2Ii8+JiN4YTsJCQk8L2c+JiN4YTsJCQk8ZyBpZD0ic2hhcGUzMDc2LTE0IiB0cmFuc2Zvcm09InRyYW5zbGF0ZSgzLjU1Mzg1LC0yMC44MTU0KSI+JiN4YTsJCQkJPHRpdGxlIGlkPSJ0aXRsZTE4MjciPmxpbmUxNTkyMjwvdGl0bGU+JiN4YTsJCQkJJiN4YTsJCQkJCTxwYXRoIGlkPSJwYXRoMTgyOSIgaW5rc2NhcGU6Y29ubmVjdG9yLWN1cnZhdHVyZT0iMCIgc3R5bGU9ImZpbGw6bm9uZTtzdHJva2U6I0E3QTlBQztzdHJva2Utd2lkdGg6MS41O3N0cm9rZS1taXRlcmxpbWl0OjM7IiBkPSIgICAgICBNMCwzOC4xOGg2LjYiLz4mI3hhOwkJCTwvZz4mI3hhOwkJCTxnIGlkPSJzaGFwZTMwNzctMTciIHRyYW5zZm9ybT0idHJhbnNsYXRlKDMuNTUzODUsLTE2LjI0NjIpIj4mI3hhOwkJCQk8dGl0bGUgaWQ9InRpdGxlMTgzMiI+bGluZTE1OTI0PC90aXRsZT4mI3hhOwkJCQkmI3hhOwkJCQkJPHBhdGggaWQ9InBhdGgxODM0IiBpbmtzY2FwZTpjb25uZWN0b3ItY3VydmF0dXJlPSIwIiBzdHlsZT0iZmlsbDpub25lO3N0cm9rZTojQTdBOUFDO3N0cm9rZS13aWR0aDoxLjU7c3Ryb2tlLW1pdGVybGltaXQ6MzsiIGQ9IiAgICAgIE0wLDM4LjE4aDE2LjI1Ii8+JiN4YTsJCQk8L2c+JiN4YTsJCQk8ZyBpZD0ic2hhcGUzMDc4LTIwIiB0cmFuc2Zvcm09InRyYW5zbGF0ZSgzLjU1Mzg1LC0xMS42NzY5KSI+JiN4YTsJCQkJPHRpdGxlIGlkPSJ0aXRsZTE4MzciPmxpbmUxNTkyNjwvdGl0bGU+JiN4YTsJCQkJJiN4YTsJCQkJCTxwYXRoIGlkPSJwYXRoMTgzOSIgaW5rc2NhcGU6Y29ubmVjdG9yLWN1cnZhdHVyZT0iMCIgc3R5bGU9ImZpbGw6bm9uZTtzdHJva2U6I0E3QTlBQztzdHJva2Utd2lkdGg6MS41O3N0cm9rZS1taXRlcmxpbWl0OjM7IiBkPSIgICAgICBNMCwzOC4xOGgxNi4yNSIvPiYjeGE7CQkJPC9nPiYjeGE7CQkJPGcgaWQ9InNoYXBlMzA3OS0yMyIgdHJhbnNmb3JtPSJ0cmFuc2xhdGUoMy41NTM4NSwtNy4xMDc2OSkiPiYjeGE7CQkJCTx0aXRsZSBpZD0idGl0bGUxODQyIj5saW5lMTU5Mjg8L3RpdGxlPiYjeGE7CQkJCSYjeGE7CQkJCQk8cGF0aCBpZD0icGF0aDE4NDQiIGlua3NjYXBlOmNvbm5lY3Rvci1jdXJ2YXR1cmU9IjAiIHN0eWxlPSJmaWxsOm5vbmU7c3Ryb2tlOiNBN0E5QUM7c3Ryb2tlLXdpZHRoOjEuNTtzdHJva2UtbWl0ZXJsaW1pdDozOyIgZD0iICAgICAgTTAsMzguMThoMTYuMjUiLz4mI3hhOwkJCTwvZz4mI3hhOwkJPC9nPiYjeGE7CQk8ZyBpZD0iZ3JvdXAzMDgwLTI2IiB0cmFuc2Zvcm09InRyYW5zbGF0ZSgwLC0xOS4wOCkiPiYjeGE7CQkJPHRpdGxlIGlkPSJ0aXRsZTE4NDgiPkRvd25sb2FkLjM4MTc2PC90aXRsZT4mI3hhOwkJCTxnIGlkPSJzaGFwZTMwODEtMjciPiYjeGE7CQkJCTx0aXRsZSBpZD0idGl0bGUxODUwIj5TaGVldC4zMDgxPC90aXRsZT4mI3hhOwkJCQk8cGF0aCBpZD0icGF0aDE4NTIiIGlua3NjYXBlOmNvbm5lY3Rvci1jdXJ2YXR1cmU9IjAiIHN0eWxlPSJmaWxsOiNGRkZGRkY7IiBkPSJNMTEuNDksMzMuMjdIOS43OGwtMS41Ny0xLjU0djYuNDVIMy4yOHYtNi40MiAgICAgIGwtMS40NiwxLjUxSDBWMjkuMWw0LjAzLTQuMDJIMC40MXYtNC41aDEwLjY3djQuNUg3LjQ5bDQsNC4wMlYzMy4yN3oiLz4mI3hhOwkJCTwvZz4mI3hhOwkJCTxnIGlkPSJzaGFwZTMwODItMjkiIHRyYW5zZm9ybT0idHJhbnNsYXRlKDEuMjMxNTksLTEuMjI4MDcpIj4mI3hhOwkJCQk8dGl0bGUgaWQ9InRpdGxlMTg1NSI+U2hlZXQuMzA4MjwvdGl0bGU+JiN4YTsJCQkJPHBhdGggaWQ9InBhdGgxODU3IiBpbmtzY2FwZTpjb25uZWN0b3ItY3VydmF0dXJlPSIwIiBzdHlsZT0iZmlsbDojNTU2QThBOyIgZD0iTTMuMjgsMzBMMCwzMy4yN3YtMi40Nmw0LjUyLTQuNWw0LjUxLDQuNXYyLjQ2ICAgICAgTDUuNzUsMzB2OC4xOEgzLjI4VjMweiIvPiYjeGE7CQkJPC9nPiYjeGE7CQkJPGcgaWQ9InNoYXBlMzA4My0zMSIgdHJhbnNmb3JtPSJ0cmFuc2xhdGUoMS42NDIxMSwtMTQuMzI3NCkiPiYjeGE7CQkJCTx0aXRsZSBpZD0idGl0bGUxODYwIj5TaGVldC4zMDgzPC90aXRsZT4mI3hhOwkJCQk8cGF0aCBpZD0icGF0aDE4NjIiIGlua3NjYXBlOmNvbm5lY3Rvci1jdXJ2YXR1cmU9IjAiIHN0eWxlPSJmaWxsOiM1NTZBOEE7IiBkPSJNMCwzNi4xNHYyLjA0aDguMjF2LTIuMDRIMHoiLz4mI3hhOwkJCTwvZz4mI3hhOwkJPC9nPiYjeGE7CTwvZz4mI3hhOzwvZz4mI3hhOzwvc3ZnPg==;rounded=1;" parent="1" vertex="1">
          <mxGeometry x="75" y="-421.08" width="56.76" height="70" as="geometry" />
        </mxCell>
        <mxCell id="mLH5fDm6BgMD-erpcmas-53" value="&lt;div style=&quot;line-height: 150%&quot;&gt;&lt;font color=&quot;#cc6600&quot;&gt;Submit&lt;/font&gt;&lt;/div&gt;" style="text;html=1;resizable=0;points=[];autosize=1;align=left;verticalAlign=top;spacingTop=-4;fontSize=24;fontFamily=Verdana;fontColor=#4D4D4D;fontStyle=1;rotation=-90;rounded=1;" parent="1" vertex="1">
          <mxGeometry x="3.552713678800501e-14" y="-476.08000000000015" width="110" height="40" as="geometry" />
        </mxCell>
        <mxCell id="mLH5fDm6BgMD-erpcmas-69" value="&lt;div style=&quot;line-height: 150%&quot;&gt;&lt;font color=&quot;#e8c55d&quot;&gt;Review&lt;/font&gt;&lt;/div&gt;" style="text;html=1;resizable=0;points=[];autosize=1;align=left;verticalAlign=top;spacingTop=-4;fontSize=24;fontFamily=Verdana;fontColor=#4D4D4D;fontStyle=1;rotation=-90;rounded=1;" parent="1" vertex="1">
          <mxGeometry x="128.24" y="-473.03000000000014" width="110" height="40" as="geometry" />
        </mxCell>
        <mxCell id="mLH5fDm6BgMD-erpcmas-74" value="" style="verticalLabelPosition=bottom;html=1;fillColor=#D79B00;strokeColor=none;verticalAlign=top;pointerEvents=1;align=center;shape=mxgraph.cisco_safe.people_places_things_icons.icon9;fontSize=17;fontColor=#E8C55D;rounded=1;" parent="1" vertex="1">
          <mxGeometry x="305.43" y="-296.0800000000001" width="67.5" height="54.71" as="geometry" />
        </mxCell>
        <mxCell id="mLH5fDm6BgMD-erpcmas-78" value="" style="edgeStyle=orthogonalEdgeStyle;rounded=1;orthogonalLoop=1;jettySize=auto;html=1;fontColor=#E8C55D;strokeWidth=2;startArrow=none;fillColor=#ffe6cc;strokeColor=#E8C55D;" parent="1" edge="1">
          <mxGeometry relative="1" as="geometry">
            <mxPoint x="205" y="-386.08000000000004" as="sourcePoint" />
            <mxPoint x="295" y="-266.08000000000004" as="targetPoint" />
            <Array as="points">
              <mxPoint x="205" y="-266.08000000000004" />
              <mxPoint x="279" y="-266.08000000000004" />
            </Array>
          </mxGeometry>
        </mxCell>
        <mxCell id="mLH5fDm6BgMD-erpcmas-84" value="&lt;div&gt;&lt;span style=&quot;font-size: 17px;&quot;&gt;Data Check&lt;/span&gt;&lt;/div&gt;" style="text;html=1;resizable=0;points=[];autosize=1;align=center;verticalAlign=top;spacingTop=-4;fontSize=24;fontFamily=Verdana;fontColor=#4D4D4D;fontStyle=1;rounded=1;" parent="1" vertex="1">
          <mxGeometry x="559.8699999999999" y="-336.37000000000006" width="130" height="40" as="geometry" />
        </mxCell>
        <mxCell id="mLH5fDm6BgMD-erpcmas-90" value="&lt;div style=&quot;line-height: 120%; font-size: 13px;&quot;&gt;&lt;font style=&quot;line-height: 120%; font-size: 13px;&quot;&gt;&lt;div style=&quot;font-size: 13px;&quot;&gt;&lt;span style=&quot;background-color: initial;&quot;&gt;Data Access Statement available&lt;/span&gt;&lt;/div&gt;&lt;div style=&quot;font-size: 13px;&quot;&gt;&lt;span style=&quot;background-color: initial;&quot;&gt;Datasets citable with DOI&lt;/span&gt;&lt;/div&gt;&lt;div style=&quot;font-size: 13px;&quot;&gt;&lt;span style=&quot;background-color: initial;&quot;&gt;Datasets accessible&lt;/span&gt;&lt;br&gt;&lt;/div&gt;&lt;div style=&quot;font-size: 13px;&quot;&gt;Datasets registered in an recognised repository&lt;span style=&quot;background-color: initial;&quot;&gt;&lt;br&gt;&lt;/span&gt;&lt;/div&gt;&lt;/font&gt;&lt;/div&gt;" style="text;resizable=0;points=[];autosize=1;align=left;verticalAlign=top;spacingTop=-4;fontSize=13;fontFamily=Verdana;fontColor=#888888;html=1;rounded=1;" parent="1" vertex="1">
          <mxGeometry x="255" y="-170.00000000000006" width="330" height="70" as="geometry" />
        </mxCell>
        <mxCell id="mLH5fDm6BgMD-erpcmas-98" value="" style="edgeStyle=orthogonalEdgeStyle;rounded=1;orthogonalLoop=1;jettySize=auto;html=1;fontSize=20;fontColor=#00EB75;strokeWidth=2;" parent="1" source="mLH5fDm6BgMD-erpcmas-83" target="mLH5fDm6BgMD-erpcmas-8" edge="1">
          <mxGeometry relative="1" as="geometry">
            <Array as="points">
              <mxPoint x="805" y="-387.08000000000004" />
              <mxPoint x="805" y="-387.08000000000004" />
            </Array>
          </mxGeometry>
        </mxCell>
        <mxCell id="mLH5fDm6BgMD-erpcmas-91" value="" style="edgeStyle=orthogonalEdgeStyle;rounded=1;orthogonalLoop=1;jettySize=auto;html=1;fontSize=14;fontColor=#4D4D4D;endArrow=none;startArrow=none;" parent="1" source="mLH5fDm6BgMD-erpcmas-83" edge="1">
          <mxGeometry relative="1" as="geometry">
            <mxPoint x="524" y="-387.6063157894737" as="sourcePoint" />
            <mxPoint x="635" y="-386.08000000000004" as="targetPoint" />
            <Array as="points">
              <mxPoint x="635" y="-387.08000000000004" />
            </Array>
          </mxGeometry>
        </mxCell>
        <mxCell id="mLH5fDm6BgMD-erpcmas-103" value="" style="edgeStyle=orthogonalEdgeStyle;rounded=1;orthogonalLoop=1;jettySize=auto;html=1;fontFamily=Verdana;fontSize=19;fontColor=#00B85C;strokeWidth=2;" parent="1" edge="1">
          <mxGeometry relative="1" as="geometry">
            <mxPoint x="824.0000000000002" y="-337.2199999999999" as="sourcePoint" />
            <mxPoint x="919" y="-266.92999999999995" as="targetPoint" />
            <Array as="points">
              <mxPoint x="824" y="-266.92999999999995" />
              <mxPoint x="909" y="-266.92999999999995" />
            </Array>
          </mxGeometry>
        </mxCell>
        <mxCell id="mLH5fDm6BgMD-erpcmas-8" value="" style="shape=image;html=1;verticalAlign=top;verticalLabelPosition=bottom;labelBackgroundColor=#ffffff;imageAspect=0;aspect=fixed;image=https://cdn1.iconfinder.com/data/icons/office-icons-17/512/ilustracoes_04-14-128.png;fontSize=12;strokeColor=#000000;strokeWidth=5;rounded=1;" parent="1" vertex="1">
          <mxGeometry x="765" y="-446.37000000000006" width="110" height="110" as="geometry" />
        </mxCell>
        <mxCell id="mLH5fDm6BgMD-erpcmas-102" value="&lt;div style=&quot;line-height: 150%&quot;&gt;&lt;font color=&quot;#00b85c&quot;&gt;Publish&lt;/font&gt;&lt;/div&gt;" style="text;html=1;resizable=0;points=[];autosize=1;align=left;verticalAlign=top;spacingTop=-4;fontSize=24;fontFamily=Verdana;fontColor=#4D4D4D;fontStyle=1;rotation=-90;rounded=1;" parent="1" vertex="1">
          <mxGeometry x="681" y="-485.58000000000015" width="110" height="40" as="geometry" />
        </mxCell>
        <mxCell id="1yga3iRedktPjQI7Co6K-1" value="&lt;div style=&quot;font-size: 12px;&quot;&gt;&lt;span style=&quot;font-size: 12px;&quot;&gt;Datasets peer-review&lt;/span&gt;&lt;/div&gt;" style="text;html=1;resizable=0;points=[];autosize=1;align=center;verticalAlign=top;spacingTop=-4;fontSize=12;fontFamily=Verdana;fontColor=#4D4D4D;fontStyle=1;strokeColor=#D79B00;rounded=1;" vertex="1" parent="1">
          <mxGeometry x="234.2399999999999" y="-236.08000000000004" width="170" height="20" as="geometry" />
        </mxCell>
        <mxCell id="1yga3iRedktPjQI7Co6K-3" value="&lt;div style=&quot;font-size: 12px;&quot;&gt;&lt;span style=&quot;font-size: 12px;&quot;&gt;Article peer-review&lt;/span&gt;&lt;/div&gt;" style="text;html=1;resizable=0;points=[];autosize=1;align=center;verticalAlign=top;spacingTop=-4;fontSize=12;fontFamily=Verdana;fontColor=#4D4D4D;fontStyle=1;rounded=1;" vertex="1" parent="1">
          <mxGeometry x="244.2399999999999" y="-351.08000000000004" width="150" height="20" as="geometry" />
        </mxCell>
        <mxCell id="1yga3iRedktPjQI7Co6K-25" value="&lt;div style=&quot;font-size: 12px;&quot;&gt;&lt;span style=&quot;font-size: 12px;&quot;&gt;Accepted&lt;/span&gt;&lt;/div&gt;" style="text;html=1;resizable=0;points=[];autosize=1;align=center;verticalAlign=top;spacingTop=-4;fontSize=12;fontFamily=Verdana;fontColor=#4D4D4D;fontStyle=1;rounded=1;" vertex="1" parent="1">
          <mxGeometry x="433.9999999999999" y="-351.08000000000004" width="90" height="20" as="geometry" />
        </mxCell>
        <mxCell id="mLH5fDm6BgMD-erpcmas-83" value="" style="shape=image;verticalLabelPosition=bottom;labelBackgroundColor=#ffffff;verticalAlign=top;aspect=fixed;imageAspect=0;image=data:image/svg+xml,PHN2ZyB4bWxuczpjYz0iaHR0cDovL2NyZWF0aXZlY29tbW9ucy5vcmcvbnMjIiB4bWxuczpkYz0iaHR0cDovL3B1cmwub3JnL2RjL2VsZW1lbnRzLzEuMS8iIHhtbG5zOmlua3NjYXBlPSJodHRwOi8vd3d3Lmlua3NjYXBlLm9yZy9uYW1lc3BhY2VzL2lua3NjYXBlIiB4bWxuczpyZGY9Imh0dHA6Ly93d3cudzMub3JnLzE5OTkvMDIvMjItcmRmLXN5bnRheC1ucyMiIHhtbG5zOnNvZGlwb2RpPSJodHRwOi8vc29kaXBvZGkuc291cmNlZm9yZ2UubmV0L0RURC9zb2RpcG9kaS0wLmR0ZCIgeG1sbnM6c3ZnPSJodHRwOi8vd3d3LnczLm9yZy8yMDAwL3N2ZyIgeG1sbnM9Imh0dHA6Ly93d3cudzMub3JnLzIwMDAvc3ZnIiB4bWxuczp4bGluaz0iaHR0cDovL3d3dy53My5vcmcvMTk5OS94bGluayIgdmVyc2lvbj0iMS4xIiBpZD0ic3ZnMjE5MTM1IiBpbmtzY2FwZTp2ZXJzaW9uPSIwLjkyLjMgKDI0MDU1NDYsIDIwMTgtMDMtMTEpIiBzb2RpcG9kaTpkb2NuYW1lPSJ3b3JrX2l0ZW1zLnN2ZyIgeD0iMHB4IiB5PSIwcHgiIHZpZXdCb3g9IjAgMCAzNy41IDQ3LjI0IiBzdHlsZT0iZW5hYmxlLWJhY2tncm91bmQ6bmV3IDAgMCAzNy41IDQ3LjI0OyIgeG1sOnNwYWNlPSJwcmVzZXJ2ZSI+JiN4YTs8c29kaXBvZGk6bmFtZWR2aWV3IGJvcmRlcmNvbG9yPSIjNjY2NjY2IiBib3JkZXJvcGFjaXR5PSIxIiBmaXQtbWFyZ2luLWJvdHRvbT0iMCIgZml0LW1hcmdpbi1sZWZ0PSIwIiBmaXQtbWFyZ2luLXJpZ2h0PSIwIiBmaXQtbWFyZ2luLXRvcD0iMCIgZ3JpZHRvbGVyYW5jZT0iMTAiIGd1aWRldG9sZXJhbmNlPSIxMCIgaWQ9Im5hbWVkdmlldzIxOTEzNyIgaW5rc2NhcGU6Y3VycmVudC1sYXllcj0ic3ZnMjE5MTM1IiBpbmtzY2FwZTpjeD0iMjQuOTk5OTYxIiBpbmtzY2FwZTpjeT0iMzEuNDk5NDg4IiBpbmtzY2FwZTpwYWdlb3BhY2l0eT0iMCIgaW5rc2NhcGU6cGFnZXNoYWRvdz0iMiIgaW5rc2NhcGU6d2luZG93LWhlaWdodD0iMTAxNyIgaW5rc2NhcGU6d2luZG93LW1heGltaXplZD0iMSIgaW5rc2NhcGU6d2luZG93LXdpZHRoPSIxOTIwIiBpbmtzY2FwZTp3aW5kb3cteD0iLTgiIGlua3NjYXBlOndpbmRvdy15PSItOCIgaW5rc2NhcGU6em9vbT0iMTMuMzM4MjkiIG9iamVjdHRvbGVyYW5jZT0iMTAiIHBhZ2Vjb2xvcj0iI2ZmZmZmZiIgc2hvd2dyaWQ9ImZhbHNlIj4mI3hhOwk8L3NvZGlwb2RpOm5hbWVkdmlldz4mI3hhOzxnIGlkPSJnMjE5MTMzIiB0cmFuc2Zvcm09InRyYW5zbGF0ZSgtMC43NTAwNDE5NiwtMC43NTUzODIzOSkiPiYjeGE7CTx0aXRsZSBpZD0idGl0bGUyMTkwNzkiPlBhZ2UtMTwvdGl0bGU+JiN4YTsJPGcgaWQ9Imdyb3VwMjc5My0xIiB0cmFuc2Zvcm09InRyYW5zbGF0ZSgxLjUsLTEuNTAwNjUpIj4mI3hhOwkJPHRpdGxlIGlkPSJ0aXRsZTIxOTA4MSI+V29yayBJdGVtczwvdGl0bGU+JiN4YTsJCTxnIGlkPSJzaGFwZTI3OTQtMiI+JiN4YTsJCQk8dGl0bGUgaWQ9InRpdGxlMjE5MDgzIj5wYXRoNDk1PC90aXRsZT4mI3hhOwkJCTxwYXRoIGlkPSJwYXRoMjE5MDg1IiBpbmtzY2FwZTpjb25uZWN0b3ItY3VydmF0dXJlPSIwIiBzdHlsZT0iZmlsbDojRkZGRkZGOyIgZD0iTTMzLjc1LDlIMi4yNUMxLjA0LDguOTcsMC4wNCw5LjkyLDAsMTEuMTMgICAgIHYzNS40OWMwLjA0LDEuMjEsMS4wNCwyLjE2LDIuMjUsMi4xM2gzMS41YzEuMjEsMC4wMywyLjIxLTAuOTIsMi4yNS0yLjEzVjExLjEzQzM1Ljk2LDkuOTIsMzQuOTYsOC45NywzMy43NSw5eiIvPiYjeGE7CQk8L2c+JiN4YTsJCTxnIGlkPSJzaGFwZTI3OTUtNCIgdHJhbnNmb3JtPSJ0cmFuc2xhdGUoMC4zNzUsLTMyLjI1KSI+JiN4YTsJCQk8dGl0bGUgaWQ9InRpdGxlMjE5MDg4Ij5wYXRoNDk3PC90aXRsZT4mI3hhOwkJCTxwYXRoIGlkPSJwYXRoMjE5MDkwIiBpbmtzY2FwZTpjb25uZWN0b3ItY3VydmF0dXJlPSIwIiBzdHlsZT0iZmlsbDojRTVFNUU1OyIgZD0iTTM1LjI1LDQyLjc1djZIMHYtNiAgICAgYzAtMS4wMywwLjg0LTEuODcsMS44Ny0xLjg3aDMxLjVDMzQuNDEsNDAuODgsMzUuMjUsNDEuNzEsMzUuMjUsNDIuNzVDMzUuMjUsNDIuNzUsMzUuMjUsNDIuNzUsMzUuMjUsNDIuNzV6Ii8+JiN4YTsJCTwvZz4mI3hhOwkJPGcgaWQ9InNoYXBlMjc5Ni02Ij4mI3hhOwkJCTx0aXRsZSBpZD0idGl0bGUyMTkwOTMiPnBhdGg0OTk8L3RpdGxlPiYjeGE7CQkJJiN4YTsJCQkJPHBhdGggaWQ9InBhdGgyMTkwOTUiIGlua3NjYXBlOmNvbm5lY3Rvci1jdXJ2YXR1cmU9IjAiIHN0eWxlPSJmaWxsOm5vbmU7c3Ryb2tlOiM1NTZBOEE7c3Ryb2tlLXdpZHRoOjEuNTtzdHJva2UtbWl0ZXJsaW1pdDozOyIgZD0iICAgICBNMzMuNzUsOUgyLjI1QzEuMDQsOC45NywwLjA0LDkuOTIsMCwxMS4xM3YzNS40OWMwLjA0LDEuMjEsMS4wNCwyLjE2LDIuMjUsMi4xM2gzMS41YzEuMjEsMC4wMywyLjIxLTAuOTIsMi4yNS0yLjEzVjExLjEzICAgICBDMzUuOTYsOS45MiwzNC45Niw4Ljk3LDMzLjc1LDl6Ii8+JiN4YTsJCTwvZz4mI3hhOwkJPGcgaWQ9InNoYXBlMjc5Ny04IiB0cmFuc2Zvcm09InRyYW5zbGF0ZSg3LjUsLTM1LjI1KSI+JiN4YTsJCQk8dGl0bGUgaWQ9InRpdGxlMjE5MDk4Ij5yZWN0NTAxPC90aXRsZT4mI3hhOwkJCTxyZWN0IGlkPSJyZWN0MjE5MTAwIiB4PSIwIiB5PSI0My41IiBzdHlsZT0iZmlsbDojRkZGRkZGOyIgd2lkdGg9IjIxIiBoZWlnaHQ9IjUuMjUiLz4mI3hhOwkJPC9nPiYjeGE7CQk8ZyBpZD0ic2hhcGUyNzk4LTEwIiB0cmFuc2Zvcm09InRyYW5zbGF0ZSg4LjI1LC0zNikiPiYjeGE7CQkJPHRpdGxlIGlkPSJ0aXRsZTIxOTEwMyI+cGF0aDUwMzwvdGl0bGU+JiN4YTsJCQk8cGF0aCBpZD0icGF0aDIxOTEwNSIgaW5rc2NhcGU6Y29ubmVjdG9yLWN1cnZhdHVyZT0iMCIgc3R5bGU9ImZpbGw6IzJCQzdGNDsiIGQ9Ik0xNS43NSw0NC4yNWMwLTAuOC0wLjE2LTEuNTktMC40Ny0yLjMzICAgICBjLTAuNjEtMS40NC0xLjc2LTIuNTktMy4yLTMuMmMtMS40OS0wLjYyLTMuMTctMC42Mi00LjY2LDBjLTAuNzEsMC4zMS0xLjM3LDAuNzQtMS45MiwxLjI5Yy0wLjU1LDAuNTUtMC45OSwxLjItMS4yOSwxLjkxICAgICBjLTAuMzEsMC43NC0wLjQ3LDEuNTMtMC40NiwyLjMzSDB2NC41aDE5LjV2LTQuNUgxNS43NXogTTkuNzUsNDQuMjVjLTEuMDQsMC0xLjg4LTAuODMtMS44OC0xLjg3YzAtMS4wNCwwLjgzLTEuODgsMS44Ny0xLjg4ICAgICBjMS4wNCwwLDEuODgsMC44MywxLjg4LDEuODdjMCwwLDAsMC4wMSwwLDAuMDFDMTEuNjIsNDMuNDEsMTAuNzgsNDQuMjUsOS43NSw0NC4yNXoiLz4mI3hhOwkJPC9nPiYjeGE7CQk8ZyBpZD0ic2hhcGUyNzk5LTEyIiB0cmFuc2Zvcm09InRyYW5zbGF0ZSg1LjI1LC0yMC42MjUpIj4mI3hhOwkJCTx0aXRsZSBpZD0idGl0bGUyMTkxMDgiPnBvbHlsaW5lNTA1PC90aXRsZT4mI3hhOwkJCTxwYXRoIGlkPSJwYXRoMjE5MTEwIiBpbmtzY2FwZTpjb25uZWN0b3ItY3VydmF0dXJlPSIwIiBzdHlsZT0iZmlsbDpub25lOyIgZD0iTTAsNDQuNjNsNC4xMiw0LjEybDkuMzgtOS4zN0wwLDQ0LjYzeiIvPiYjeGE7CQkJJiN4YTsJCQkJPHBhdGggaWQ9InBhdGgyMTkxMTIiIGlua3NjYXBlOmNvbm5lY3Rvci1jdXJ2YXR1cmU9IjAiIHN0eWxlPSJmaWxsOm5vbmU7c3Ryb2tlOiM1NTZBOEE7c3Ryb2tlLXdpZHRoOjEuNTtzdHJva2UtbWl0ZXJsaW1pdDozOyIgZD0iICAgICBNMCw0NC42M2w0LjEyLDQuMTJsOS4zOC05LjM3Ii8+JiN4YTsJCTwvZz4mI3hhOwkJPGcgaWQ9InNoYXBlMjgwMC0xNSIgdHJhbnNmb3JtPSJ0cmFuc2xhdGUoNS4yNSwtOC42MjUpIj4mI3hhOwkJCTx0aXRsZSBpZD0idGl0bGUyMTkxMTUiPnBvbHlsaW5lNTA3PC90aXRsZT4mI3hhOwkJCTxwYXRoIGlkPSJwYXRoMjE5MTE3IiBpbmtzY2FwZTpjb25uZWN0b3ItY3VydmF0dXJlPSIwIiBzdHlsZT0iZmlsbDpub25lOyIgZD0iTTAsNDQuNjNsNC4xMiw0LjEybDkuMzgtOS4zN0wwLDQ0LjYzeiIvPiYjeGE7CQkJJiN4YTsJCQkJPHBhdGggaWQ9InBhdGgyMTkxMTkiIGlua3NjYXBlOmNvbm5lY3Rvci1jdXJ2YXR1cmU9IjAiIHN0eWxlPSJmaWxsOm5vbmU7c3Ryb2tlOiM1NTZBOEE7c3Ryb2tlLXdpZHRoOjEuNTtzdHJva2UtbWl0ZXJsaW1pdDozOyIgZD0iICAgICBNMCw0NC42M2w0LjEyLDQuMTJsOS4zOC05LjM3Ii8+JiN4YTsJCTwvZz4mI3hhOwkJPGcgaWQ9InNoYXBlMjgwMS0xOCIgdHJhbnNmb3JtPSJ0cmFuc2xhdGUoMTkuNSwtMjQpIj4mI3hhOwkJCTx0aXRsZSBpZD0idGl0bGUyMTkxMjIiPmxpbmU1MDk8L3RpdGxlPiYjeGE7CQkJJiN4YTsJCQkJPHBhdGggaWQ9InBhdGgyMTkxMjQiIGlua3NjYXBlOmNvbm5lY3Rvci1jdXJ2YXR1cmU9IjAiIHN0eWxlPSJmaWxsOm5vbmU7c3Ryb2tlOiM1NTZBOEE7c3Ryb2tlLXdpZHRoOjEuNTtzdHJva2UtbWl0ZXJsaW1pdDozOyIgZD0iICAgICBNMCw0OC43NWgxMiIvPiYjeGE7CQk8L2c+JiN4YTsJCTxnIGlkPSJzaGFwZTI4MDItMjEiIHRyYW5zZm9ybT0idHJhbnNsYXRlKDE5LjUsLTEyKSI+JiN4YTsJCQk8dGl0bGUgaWQ9InRpdGxlMjE5MTI3Ij5saW5lNTExPC90aXRsZT4mI3hhOwkJCSYjeGE7CQkJCTxwYXRoIGlkPSJwYXRoMjE5MTI5IiBpbmtzY2FwZTpjb25uZWN0b3ItY3VydmF0dXJlPSIwIiBzdHlsZT0iZmlsbDpub25lO3N0cm9rZTojNTU2QThBO3N0cm9rZS13aWR0aDoxLjU7c3Ryb2tlLW1pdGVybGltaXQ6MzsiIGQ9IiAgICAgTTAsNDguNzVoMTIiLz4mI3hhOwkJPC9nPiYjeGE7CTwvZz4mI3hhOzwvZz4mI3hhOzwvc3ZnPg==;rounded=1;" parent="1" vertex="1">
          <mxGeometry x="595" y="-424.03000000000003" width="59.75" height="73.9" as="geometry" />
        </mxCell>
        <mxCell id="1yga3iRedktPjQI7Co6K-26" value="" style="edgeStyle=orthogonalEdgeStyle;rounded=1;orthogonalLoop=1;jettySize=auto;html=1;fontSize=14;fontColor=#4D4D4D;endArrow=none;" edge="1" parent="1" target="mLH5fDm6BgMD-erpcmas-83">
          <mxGeometry relative="1" as="geometry">
            <mxPoint x="524" y="-387.6063157894737" as="sourcePoint" />
            <mxPoint x="635" y="-386.08000000000004" as="targetPoint" />
            <Array as="points" />
          </mxGeometry>
        </mxCell>
        <mxCell id="1yga3iRedktPjQI7Co6K-28" value="" style="edgeStyle=orthogonalEdgeStyle;rounded=1;orthogonalLoop=1;jettySize=auto;html=1;fontFamily=Verdana;fontSize=19;fontColor=#00B85C;strokeWidth=2;" edge="1" parent="1">
          <mxGeometry relative="1" as="geometry">
            <mxPoint x="820.0026315789476" y="-453.2199999999999" as="sourcePoint" />
            <mxPoint x="920" y="-527.93" as="targetPoint" />
            <Array as="points">
              <mxPoint x="820" y="-527.93" />
            </Array>
          </mxGeometry>
        </mxCell>
        <mxCell id="1yga3iRedktPjQI7Co6K-33" value="&lt;div&gt;&lt;span style=&quot;font-size: 17px;&quot;&gt;Data check&lt;/span&gt;&lt;/div&gt;" style="text;html=1;resizable=0;points=[];autosize=1;align=center;verticalAlign=top;spacingTop=-4;fontSize=24;fontFamily=Verdana;fontColor=#4D4D4D;fontStyle=1;rounded=1;" vertex="1" parent="1">
          <mxGeometry x="114.99999999999989" y="-170.00000000000006" width="130" height="40" as="geometry" />
        </mxCell>
        <mxCell id="1yga3iRedktPjQI7Co6K-35" value="&lt;span style=&quot;color: rgb(136, 136, 136); font-family: Verdana; font-size: 13px; font-style: normal; font-variant-ligatures: normal; font-variant-caps: normal; letter-spacing: normal; orphans: 2; text-align: left; text-indent: 0px; text-transform: none; widows: 2; word-spacing: 0px; -webkit-text-stroke-width: 0px; background-color: rgb(248, 249, 250); text-decoration-thickness: initial; text-decoration-style: initial; text-decoration-color: initial; font-weight: normal;&quot;&gt;make datasets&lt;span&gt;&amp;nbsp;&lt;/span&gt;&lt;/span&gt;&lt;span style=&quot;color: rgb(136, 136, 136); font-family: Verdana; font-size: 13px; font-style: normal; font-variant-ligatures: normal; font-variant-caps: normal; letter-spacing: normal; orphans: 2; text-align: left; text-indent: 0px; text-transform: none; widows: 2; word-spacing: 0px; -webkit-text-stroke-width: 0px; background-color: rgb(248, 249, 250); text-decoration-thickness: initial; text-decoration-style: initial; text-decoration-color: initial; font-weight: 400;&quot;&gt;easily&lt;/span&gt;&lt;span style=&quot;color: rgb(136, 136, 136); font-family: Verdana; font-size: 13px; font-style: normal; font-variant-ligatures: normal; font-variant-caps: normal; letter-spacing: normal; orphans: 2; text-align: left; text-indent: 0px; text-transform: none; widows: 2; word-spacing: 0px; -webkit-text-stroke-width: 0px; background-color: rgb(248, 249, 250); text-decoration-thickness: initial; text-decoration-style: initial; text-decoration-color: initial; font-weight: normal;&quot;&gt;&amp;nbsp;&lt;/span&gt;&lt;span style=&quot;color: rgb(136, 136, 136); font-family: Verdana; font-size: 13px; font-style: normal; font-variant-ligatures: normal; font-variant-caps: normal; letter-spacing: normal; orphans: 2; text-align: left; text-indent: 0px; text-transform: none; widows: 2; word-spacing: 0px; -webkit-text-stroke-width: 0px; background-color: rgb(248, 249, 250); text-decoration-thickness: initial; text-decoration-style: initial; text-decoration-color: initial; font-weight: 400;&quot;&gt;accessible&lt;/span&gt;&lt;span style=&quot;color: rgb(136, 136, 136); font-family: Verdana; font-size: 13px; font-style: normal; font-variant-ligatures: normal; font-variant-caps: normal; letter-spacing: normal; orphans: 2; text-align: left; text-indent: 0px; text-transform: none; widows: 2; word-spacing: 0px; -webkit-text-stroke-width: 0px; background-color: rgb(248, 249, 250); text-decoration-thickness: initial; text-decoration-style: initial; text-decoration-color: initial; font-weight: normal;&quot;&gt;&amp;nbsp;by&lt;br&gt;having a Radio button on the&lt;/span&gt;&lt;br style=&quot;color: rgb(136, 136, 136); font-family: Verdana; font-size: 13px; font-style: normal; font-variant-ligatures: normal; font-variant-caps: normal; font-weight: 700; letter-spacing: normal; orphans: 2; text-align: left; text-indent: 0px; text-transform: none; widows: 2; word-spacing: 0px; -webkit-text-stroke-width: 0px; background-color: rgb(248, 249, 250); text-decoration-thickness: initial; text-decoration-style: initial; text-decoration-color: initial;&quot;&gt;&lt;span style=&quot;color: rgb(136, 136, 136); font-family: Verdana; font-size: 13px; font-style: normal; font-variant-ligatures: normal; font-variant-caps: normal; letter-spacing: normal; orphans: 2; text-align: left; text-indent: 0px; text-transform: none; widows: 2; word-spacing: 0px; -webkit-text-stroke-width: 0px; background-color: rgb(248, 249, 250); text-decoration-thickness: initial; text-decoration-style: initial; text-decoration-color: initial; font-weight: normal;&quot;&gt;article landing page&lt;/span&gt;" style="text;whiteSpace=wrap;html=1;fontColor=#095C86;" vertex="1" parent="1">
          <mxGeometry x="250" y="-90.00000000000004" width="260" height="70" as="geometry" />
        </mxCell>
        <mxCell id="1yga3iRedktPjQI7Co6K-37" value="&lt;div&gt;&lt;span style=&quot;font-size: 17px;&quot;&gt;Reviewers&#39; Recognition&lt;/span&gt;&lt;/div&gt;" style="text;html=1;resizable=0;points=[];autosize=1;align=center;verticalAlign=top;spacingTop=-4;fontSize=24;fontFamily=Verdana;fontColor=#4D4D4D;fontStyle=1;rounded=1;" vertex="1" parent="1">
          <mxGeometry x="609.9999999999999" y="-195.00000000000006" width="250" height="40" as="geometry" />
        </mxCell>
        <mxCell id="1yga3iRedktPjQI7Co6K-39" value="&lt;div&gt;&lt;span style=&quot;font-size: 17px;&quot;&gt;Datasets&lt;/span&gt;&lt;/div&gt;&lt;div&gt;&lt;span style=&quot;font-size: 17px;&quot;&gt;Visibility&amp;nbsp;&lt;/span&gt;&lt;/div&gt;" style="text;html=1;resizable=0;points=[];autosize=1;align=center;verticalAlign=top;spacingTop=-4;fontSize=24;fontFamily=Verdana;fontColor=#4D4D4D;fontStyle=1;rounded=1;" vertex="1" parent="1">
          <mxGeometry x="919.9999999999999" y="-297.21999999999997" width="110" height="70" as="geometry" />
        </mxCell>
        <mxCell id="1yga3iRedktPjQI7Co6K-40" value="&lt;div&gt;&lt;span style=&quot;font-size: 17px;&quot;&gt;Reviewers&#39;&lt;/span&gt;&lt;/div&gt;&lt;div&gt;&lt;span style=&quot;font-size: 17px;&quot;&gt;Recognition&lt;/span&gt;&lt;/div&gt;" style="text;html=1;resizable=0;points=[];autosize=1;align=center;verticalAlign=top;spacingTop=-4;fontSize=24;fontFamily=Verdana;fontColor=#4D4D4D;fontStyle=1;rounded=1;" vertex="1" parent="1">
          <mxGeometry x="929.2399999999999" y="-546.93" width="140" height="70" as="geometry" />
        </mxCell>
        <mxCell id="1yga3iRedktPjQI7Co6K-41" value="&lt;div&gt;&lt;span style=&quot;font-size: 17px;&quot;&gt;Datasets&lt;/span&gt;&lt;/div&gt;&lt;div&gt;&lt;span style=&quot;font-size: 17px;&quot;&gt;Visibility&amp;nbsp;&lt;/span&gt;&lt;/div&gt;" style="text;html=1;resizable=0;points=[];autosize=1;align=center;verticalAlign=top;spacingTop=-4;fontSize=24;fontFamily=Verdana;fontColor=#4D4D4D;fontStyle=1;rounded=1;" vertex="1" parent="1">
          <mxGeometry x="114.99999999999989" y="-105.00000000000004" width="110" height="70" as="geometry" />
        </mxCell>
        <mxCell id="TAMrfTFmbO-b7XiaAz6d-32" value="" style="edgeStyle=orthogonalEdgeStyle;rounded=1;orthogonalLoop=1;jettySize=auto;html=1;fontColor=#E8C55D;strokeColor=#000000;" edge="1" parent="1">
          <mxGeometry relative="1" as="geometry">
            <mxPoint x="490" y="239" as="targetPoint" />
            <Array as="points">
              <mxPoint x="472" y="239" />
              <mxPoint x="472" y="239" />
            </Array>
            <mxPoint x="437.00000000000045" y="238.99999999999955" as="sourcePoint" />
          </mxGeometry>
        </mxCell>
        <mxCell id="TAMrfTFmbO-b7XiaAz6d-36" value="" style="edgeStyle=orthogonalEdgeStyle;rounded=1;orthogonalLoop=1;jettySize=auto;html=1;fontColor=#E8C55D;strokeColor=#000000;entryX=-0.154;entryY=0.5;entryDx=0;entryDy=0;entryPerimeter=0;" edge="1" parent="1">
          <mxGeometry relative="1" as="geometry">
            <mxPoint x="361.9900000000007" y="240" as="targetPoint" />
            <mxPoint x="200" y="240" as="sourcePoint" />
          </mxGeometry>
        </mxCell>
        <mxCell id="TAMrfTFmbO-b7XiaAz6d-38" value="&lt;div style=&quot;line-height: 150%&quot;&gt;&lt;font color=&quot;#d79b00&quot;&gt;Datasets&lt;/font&gt;&lt;/div&gt;&lt;div style=&quot;line-height: 150%&quot;&gt;&lt;font color=&quot;#d79b00&quot;&gt;peer-review&lt;/font&gt;&lt;/div&gt;&lt;div style=&quot;line-height: 150%&quot;&gt;&lt;br&gt;&lt;/div&gt;" style="text;html=1;resizable=0;points=[];autosize=1;align=left;verticalAlign=top;spacingTop=-4;fontSize=24;fontFamily=Verdana;fontColor=#4D4D4D;fontStyle=1;rotation=-90;rounded=1;" vertex="1" parent="1">
          <mxGeometry x="165.62" y="34.9999999999999" width="190" height="120" as="geometry" />
        </mxCell>
        <mxCell id="TAMrfTFmbO-b7XiaAz6d-40" value="" style="edgeStyle=orthogonalEdgeStyle;rounded=1;orthogonalLoop=1;jettySize=auto;html=1;fontColor=#000000;strokeWidth=2;startArrow=none;fillColor=#ffe6cc;strokeColor=#000000;" edge="1" parent="1">
          <mxGeometry relative="1" as="geometry">
            <mxPoint x="635.03" y="234" as="sourcePoint" />
            <mxPoint x="750.79" y="404" as="targetPoint" />
            <Array as="points">
              <mxPoint x="634.79" y="404" />
            </Array>
          </mxGeometry>
        </mxCell>
        <mxCell id="TAMrfTFmbO-b7XiaAz6d-43" value="" style="edgeStyle=orthogonalEdgeStyle;rounded=1;orthogonalLoop=1;jettySize=auto;html=1;fontSize=14;fontColor=#4D4D4D;endArrow=none;startArrow=none;" edge="1" parent="1">
          <mxGeometry relative="1" as="geometry">
            <mxPoint x="742" y="241.95061728395058" as="sourcePoint" />
            <mxPoint x="742" y="240" as="targetPoint" />
            <Array as="points">
              <mxPoint x="742" y="239" />
            </Array>
          </mxGeometry>
        </mxCell>
        <mxCell id="TAMrfTFmbO-b7XiaAz6d-46" value="&lt;div style=&quot;line-height: 150%&quot;&gt;&lt;font color=&quot;#00b85c&quot;&gt;Registered&lt;/font&gt;&lt;/div&gt;" style="text;html=1;resizable=0;points=[];autosize=1;align=left;verticalAlign=top;spacingTop=-4;fontSize=24;fontFamily=Verdana;fontStyle=1;rotation=-90;rounded=1;fillColor=none;strokeColor=none;" vertex="1" parent="1">
          <mxGeometry x="511" y="94.99999999999986" width="170" height="40" as="geometry" />
        </mxCell>
        <mxCell id="TAMrfTFmbO-b7XiaAz6d-55" value="" style="sketch=0;outlineConnect=0;fillColor=#000000;strokeColor=#001DBC;dashed=0;verticalLabelPosition=bottom;verticalAlign=top;align=center;html=1;fontSize=12;fontStyle=0;aspect=fixed;pointerEvents=1;shape=mxgraph.aws4.data_set;rounded=0;fontColor=#ffffff;" vertex="1" parent="1">
          <mxGeometry x="111.19000000000005" y="183.44999999999993" width="82.81" height="102.53" as="geometry" />
        </mxCell>
        <mxCell id="TAMrfTFmbO-b7XiaAz6d-56" value="&lt;div style=&quot;line-height: 150%&quot;&gt;&lt;font color=&quot;#cc6600&quot;&gt;Upload to&lt;/font&gt;&lt;/div&gt;&lt;div style=&quot;line-height: 150%&quot;&gt;&lt;font color=&quot;#cc6600&quot;&gt;Repository&lt;/font&gt;&lt;/div&gt;" style="text;html=1;resizable=0;points=[];autosize=1;align=left;verticalAlign=top;spacingTop=-4;fontSize=24;fontFamily=Verdana;fontColor=#4D4D4D;fontStyle=1;rotation=-90;rounded=1;" vertex="1" parent="1">
          <mxGeometry x="-24.999999999999968" y="74.99999999999989" width="170" height="80" as="geometry" />
        </mxCell>
        <mxCell id="TAMrfTFmbO-b7XiaAz6d-57" value="&lt;font face=&quot;Verdana&quot; color=&quot;#888888&quot;&gt;&lt;span style=&quot;font-size: 13px;&quot;&gt;ReadMe file complete&lt;br&gt;&lt;br&gt;Datasets:&lt;br&gt;&lt;div style=&quot;&quot;&gt;&lt;ul&gt;&lt;li&gt;&lt;span style=&quot;background-color: initial;&quot;&gt;Citable with DOI&lt;/span&gt;&lt;/li&gt;&lt;li&gt;&lt;span style=&quot;background-color: initial;&quot;&gt;Findable&lt;/span&gt;&lt;/li&gt;&lt;li&gt;&lt;span style=&quot;background-color: initial;&quot;&gt;Accessible&lt;/span&gt;&lt;/li&gt;&lt;/ul&gt;&lt;/div&gt;&lt;/span&gt;&lt;/font&gt;" style="text;whiteSpace=wrap;html=1;strokeWidth=2;rounded=1;glass=0;shadow=0;sketch=0;fontStyle=0;align=left;" vertex="1" parent="1">
          <mxGeometry x="290" y="262.75" width="153.57" height="117.25" as="geometry" />
        </mxCell>
        <UserObject label="&lt;font color=&quot;#000000&quot; style=&quot;&quot;&gt;&lt;font style=&quot;&quot;&gt;&lt;span style=&quot;font-size: 19px;&quot;&gt;&lt;b&gt;Open data badge&amp;nbsp;from OSF =&amp;gt;&lt;/b&gt;&lt;/span&gt;&lt;/font&gt;&lt;span style=&quot;font-size: 15px;&quot;&gt;https://osf.io/g6u5k &lt;br&gt;&lt;div style=&quot;text-align: center;&quot;&gt;&lt;span style=&quot;background-color: initial;&quot;&gt;or&amp;nbsp;&lt;/span&gt;&lt;/div&gt;&lt;b&gt;FAIR Data Label&lt;/b&gt;&lt;/span&gt;&lt;/font&gt;" link="https://osf.io/g6u5k" id="TAMrfTFmbO-b7XiaAz6d-61">
          <mxCell style="text;whiteSpace=wrap;html=1;fontSize=24;fontColor=#E8C55D;" vertex="1" parent="1">
            <mxGeometry x="780" y="42" width="230" height="128" as="geometry" />
          </mxCell>
        </UserObject>
        <mxCell id="TAMrfTFmbO-b7XiaAz6d-79" value="" style="edgeStyle=orthogonalEdgeStyle;curved=0;rounded=1;sketch=0;orthogonalLoop=1;jettySize=auto;html=1;fontSize=19;fontColor=#000000;strokeColor=#000000;strokeWidth=2;fillColor=#F694C1;" edge="1" parent="1" source="TAMrfTFmbO-b7XiaAz6d-63" target="TAMrfTFmbO-b7XiaAz6d-67">
          <mxGeometry relative="1" as="geometry" />
        </mxCell>
        <mxCell id="TAMrfTFmbO-b7XiaAz6d-63" value="" style="shape=image;html=1;verticalAlign=top;verticalLabelPosition=bottom;labelBackgroundColor=#00CC66;imageAspect=0;aspect=fixed;image=https://cdn2.iconfinder.com/data/icons/arrows-and-universal-actions-icon-set/256/ok_circle-128.png;fontSize=14;fontColor=#00CC66;strokeColor=#000000;strokeWidth=5;rounded=1;" vertex="1" parent="1">
          <mxGeometry x="500" y="193.20999999999992" width="79" height="79" as="geometry" />
        </mxCell>
        <mxCell id="TAMrfTFmbO-b7XiaAz6d-67" value="" style="sketch=0;aspect=fixed;pointerEvents=1;shadow=0;dashed=0;html=1;strokeColor=none;labelPosition=center;verticalLabelPosition=bottom;verticalAlign=top;align=center;fillColor=#00188D;shape=mxgraph.azure.certificate;rounded=1;glass=0;fontSize=15;fontColor=#000000;" vertex="1" parent="1">
          <mxGeometry x="669" y="63.6" width="96" height="76.8" as="geometry" />
        </mxCell>
        <mxCell id="TAMrfTFmbO-b7XiaAz6d-80" value="&lt;div style=&quot;line-height: 150%; font-size: 14px;&quot;&gt;&lt;font style=&quot;font-size: 14px;&quot;&gt;Metadata&amp;nbsp;&lt;/font&gt;&lt;span style=&quot;background-color: initial; font-size: 14px;&quot;&gt;Review&lt;/span&gt;&lt;/div&gt;" style="text;html=1;resizable=0;points=[];autosize=1;align=left;verticalAlign=top;spacingTop=-4;fontSize=14;fontFamily=Verdana;fontStyle=1;rotation=0;rounded=1;arcSize=0;glass=0;shadow=0;sketch=0;fillColor=default;strokeColor=#D79B00;strokeWidth=2;" vertex="1" parent="1">
          <mxGeometry x="294.19" y="222.70999999999987" width="160" height="30" as="geometry" />
        </mxCell>
        <mxCell id="TAMrfTFmbO-b7XiaAz6d-81" value="&lt;div style=&quot;line-height: 150%; font-size: 12px;&quot;&gt;Review of the value&lt;/div&gt;&lt;div style=&quot;line-height: 150%; font-size: 12px;&quot;&gt;&amp;nbsp;of the datasets&lt;/div&gt;" style="text;html=1;resizable=0;points=[];autosize=1;align=center;verticalAlign=top;spacingTop=-4;fontSize=25;fontFamily=Verdana;fontStyle=1;rotation=-90;rounded=1;arcSize=0;strokeColor=#D79B00;" vertex="1" parent="1">
          <mxGeometry x="580" y="298.9999999999999" width="160" height="40" as="geometry" />
        </mxCell>
        <mxCell id="TAMrfTFmbO-b7XiaAz6d-82" value="" style="verticalLabelPosition=bottom;html=1;verticalAlign=top;align=center;strokeColor=none;fillColor=#000000;shape=mxgraph.azure.certificate;pointerEvents=1;rounded=1;shadow=0;glass=0;sketch=0;fontSize=12;fontColor=#000000;" vertex="1" parent="1">
          <mxGeometry x="755" y="364" width="109" height="75" as="geometry" />
        </mxCell>
        <UserObject label="&lt;font color=&quot;#000000&quot; style=&quot;&quot;&gt;&lt;b style=&quot;&quot;&gt;&lt;font style=&quot;font-size: 19px;&quot;&gt;Data peer-reviewed label&lt;/font&gt;&lt;/b&gt;&lt;/font&gt;" link="https://osf.io/g6u5k" id="TAMrfTFmbO-b7XiaAz6d-86">
          <mxCell style="text;whiteSpace=wrap;html=1;fontSize=24;fontColor=#E8C55D;" vertex="1" parent="1">
            <mxGeometry x="875" y="363" width="218" height="56" as="geometry" />
          </mxCell>
        </UserObject>
        <mxCell id="TAMrfTFmbO-b7XiaAz6d-87" value="&lt;div style=&quot;line-height: 120%; font-size: 13px;&quot;&gt;&lt;font style=&quot;line-height: 120%; font-size: 13px;&quot;&gt;&lt;div style=&quot;font-size: 13px;&quot;&gt;&lt;span style=&quot;background-color: initial;&quot;&gt;Data Access Statement available&lt;/span&gt;&lt;/div&gt;&lt;div style=&quot;font-size: 13px;&quot;&gt;&lt;span style=&quot;background-color: initial;&quot;&gt;Datasets citable with DOI&lt;/span&gt;&lt;/div&gt;&lt;div style=&quot;font-size: 13px;&quot;&gt;&lt;span style=&quot;background-color: initial;&quot;&gt;Datasets accessible&lt;/span&gt;&lt;br&gt;&lt;/div&gt;&lt;div style=&quot;font-size: 13px;&quot;&gt;Datasets registered in an recognised repository&lt;span style=&quot;background-color: initial;&quot;&gt;&lt;br&gt;&lt;/span&gt;&lt;/div&gt;&lt;/font&gt;&lt;/div&gt;" style="text;resizable=0;points=[];autosize=1;align=left;verticalAlign=top;spacingTop=-4;fontSize=13;fontFamily=Verdana;fontColor=#888888;html=1;rounded=1;" vertex="1" parent="1">
          <mxGeometry x="480" y="-296.37000000000006" width="330" height="70" as="geometry" />
        </mxCell>
      </root>
    </mxGraphModel>
  </diagram>
  <diagram id="bDXEDouhWZSbR6m2y-_y" name="Review process detailed">
    <mxGraphModel dx="1102" dy="581" grid="1" gridSize="10" guides="1" tooltips="1" connect="1" arrows="1" fold="1" page="1" pageScale="1" pageWidth="1100" pageHeight="850" math="0" shadow="0">
      <root>
        <mxCell id="0" />
        <mxCell id="1" parent="0" />
      </root>
    </mxGraphModel>
  </diagram>
</mxfile>
